<?xml version="1.0" encoding="UTF-8" standalone="no"?>
<!DOCTYPE svg PUBLIC "-//W3C//DTD SVG 1.1//EN" "http://www.w3.org/Graphics/SVG/1.1/DTD/svg11.dtd">
<svg width="100%" height="100%" viewBox="0 0 940 500" version="1.1" xmlns="http://www.w3.org/2000/svg" xmlns:xlink="http://www.w3.org/1999/xlink" xml:space="preserve" xmlns:serif="http://www.serif.com/" style="fill-rule:evenodd;clip-rule:evenodd;stroke-linejoin:round;stroke-miterlimit:2;">
    <g id="Prancheta1" transform="matrix(1,0,0,0.625,0,0)">
        <rect x="0" y="0" width="940" height="800" style="fill:none;"/>
        <g transform="matrix(1.175,0,0,1.88,0,-366.457)">
            <g transform="matrix(0.851063,0,0,0.851063,0,194.924)">
                <path d="M246.995,500C250.338,493.681 256.805,488.895 263.755,488.895C270.167,488.895 275.79,492.256 279.042,497.323C279.052,497.023 279.051,496.72 279.065,496.42C279.023,495.506 278.991,494.59 278.991,493.664C278.991,458.809 306.89,430.554 341.305,430.554C353.961,430.554 365.726,434.384 375.554,440.947C378.447,434.615 384.761,430.211 392.102,430.211C393.128,430.211 394.126,430.317 395.108,430.482C395.144,414.611 407.857,401.756 423.536,401.756C427.005,401.756 430.318,402.421 433.392,403.575C433.415,403.361 433.454,403.155 433.485,402.947C433.35,402.027 433.254,401.093 433.254,400.131C433.254,389.455 441.801,380.798 452.345,380.798C453.815,380.798 455.242,380.981 456.615,381.301L467.289,352.769L484.902,352.769L495.771,381.818C503.791,384.354 509.834,391.374 511.103,399.979C513.579,399.014 516.255,398.466 519.064,398.466C531.345,398.466 541.302,408.548 541.302,420.989C541.302,421.957 541.232,422.911 541.111,423.845C541.192,424.504 541.238,425.17 541.263,425.847L541.302,425.844C558.578,425.844 573.033,437.897 577.026,454.139C584.77,450.643 593.337,448.684 602.361,448.684C632.794,448.684 658.118,470.782 663.573,500L246.995,500Z" style="fill:white;"/>
            </g>
            <g transform="matrix(1,0,0,1,107.127,0)">
                <path d="M83.349,296.71C77.968,296.71 72.935,298.187 68.624,300.751C67.595,285.751 55.11,273.901 39.849,273.901C36.129,273.901 32.577,274.613 29.312,275.895C25.155,261.987 12.27,251.847 -2.989,251.847C-21.61,251.847 -36.705,266.942 -36.705,285.563C-36.705,286.04 -36.689,286.512 -36.669,286.983L-36.705,286.982C-55.326,286.982 -70.421,302.077 -70.421,320.698C-70.421,339.319 -55.326,354.414 -36.705,354.414C-35.543,354.414 -34.394,354.355 -33.262,354.24L80.204,354.24C81.237,354.353 82.285,354.414 83.349,354.414C99.283,354.414 112.201,341.497 112.201,325.562C112.201,309.627 99.283,296.71 83.349,296.71Z" style="fill:white;fill-rule:nonzero;"/>
            </g>
            <g transform="matrix(1,0,0,1,-100.382,0)">
                <path d="M726.405,422.961C730.885,422.961 735.076,424.191 738.666,426.326C739.522,413.837 749.918,403.97 762.625,403.97C765.723,403.97 768.68,404.563 771.398,405.63C774.86,394.05 785.589,385.606 798.295,385.606C813.799,385.606 826.368,398.175 826.368,413.68C826.368,414.076 826.354,414.47 826.338,414.862L826.368,414.861C841.872,414.861 854.441,427.431 854.441,442.935C854.441,458.439 841.872,471.009 826.368,471.009C825.4,471.009 824.443,470.959 823.501,470.863L729.024,470.863C728.163,470.957 727.29,471.009 726.405,471.009C713.138,471.009 702.382,460.253 702.382,446.985C702.382,433.717 713.138,422.961 726.405,422.961Z" style="fill:white;fill-rule:nonzero;"/>
            </g>
            <path d="M523.925,543.554C523.752,540.663 521.354,538.372 518.419,538.372C516.042,538.372 514.017,539.875 513.24,541.982C512.221,540.859 510.749,540.154 509.112,540.154C506.034,540.154 503.538,542.65 503.538,545.729C503.538,547.848 504.72,549.689 506.46,550.633C505.614,551.603 505.102,552.869 505.102,554.256C505.102,557.304 507.571,559.773 510.619,559.773C511.673,559.773 512.656,559.478 513.494,558.965L513.517,558.979C513.465,559.235 513.437,559.501 513.437,559.773C513.437,561.981 515.227,563.771 517.435,563.771C519.642,563.771 521.432,561.981 521.432,559.773C521.432,559.45 521.388,559.138 521.315,558.837C522,559.033 522.722,559.14 523.469,559.14C527.776,559.14 531.269,555.647 531.269,551.34C531.269,547.186 528.021,543.791 523.925,543.554Z" style="fill:white;fill-rule:nonzero;"/>
            <path d="M330.956,508.762C330.782,505.87 328.384,503.58 325.45,503.58C323.073,503.58 321.047,505.083 320.271,507.19C319.251,506.067 317.779,505.361 316.143,505.361C313.064,505.361 310.569,507.857 310.569,510.937C310.569,513.055 311.75,514.896 313.49,515.841C312.645,516.81 312.132,518.076 312.132,519.464C312.132,522.511 314.602,524.98 317.649,524.98C318.703,524.98 319.688,524.685 320.525,524.173L320.547,524.186C320.495,524.442 320.467,524.708 320.467,524.98C320.467,527.188 322.257,528.979 324.464,528.979C326.672,528.979 328.462,527.188 328.462,524.98C328.462,524.657 328.419,524.345 328.347,524.044C329.031,524.24 329.752,524.348 330.499,524.348C334.807,524.348 338.299,520.854 338.299,516.547C338.299,512.393 335.051,508.998 330.956,508.762Z" style="fill:white;fill-rule:nonzero;"/>
            <path d="M549.367,557.914C549.289,556.621 548.217,555.597 546.905,555.597C545.843,555.597 544.937,556.269 544.59,557.211C544.134,556.709 543.476,556.394 542.743,556.394C541.367,556.394 540.251,557.51 540.251,558.887C540.251,559.834 540.779,560.657 541.558,561.079C541.18,561.513 540.95,562.079 540.95,562.699C540.95,564.062 542.055,565.166 543.417,565.166C543.889,565.166 544.328,565.034 544.703,564.805L544.713,564.811C544.689,564.926 544.678,565.045 544.678,565.166C544.678,566.153 545.478,566.954 546.465,566.954C547.452,566.954 548.252,566.153 548.252,565.166C548.252,565.021 548.233,564.882 548.2,564.748C548.506,564.835 548.829,564.883 549.163,564.883C551.089,564.883 552.65,563.321 552.65,561.396C552.65,559.538 551.198,558.02 549.367,557.914Z" style="fill:white;fill-rule:nonzero;"/>
            <path d="M365.683,494.974C365.581,493.267 364.165,491.913 362.432,491.913C361.028,491.913 359.832,492.801 359.373,494.046C358.771,493.382 357.902,492.966 356.936,492.966C355.117,492.966 353.644,494.439 353.644,496.258C353.644,497.509 354.341,498.597 355.369,499.153C354.87,499.727 354.566,500.475 354.566,501.294C354.566,503.093 356.025,504.552 357.825,504.552C358.447,504.552 359.029,504.377 359.523,504.074L359.536,504.082C359.505,504.234 359.489,504.391 359.489,504.552C359.489,505.855 360.546,506.912 361.85,506.912C363.153,506.912 364.21,505.855 364.21,504.552C364.21,504.361 364.186,504.177 364.143,503.999C364.546,504.114 364.972,504.178 365.414,504.178C367.958,504.178 370.02,502.115 370.02,499.571C370.02,497.118 368.102,495.113 365.683,494.974Z" style="fill:white;fill-rule:nonzero;"/>
            <path d="M307.285,535.011C307.208,533.719 306.135,532.694 304.823,532.694C303.76,532.694 302.854,533.366 302.507,534.309C302.051,533.807 301.394,533.491 300.662,533.491C299.285,533.491 298.169,534.606 298.169,535.983C298.169,536.931 298.697,537.755 299.476,538.177C299.098,538.609 298.868,539.176 298.868,539.797C298.868,541.159 299.973,542.264 301.335,542.264C301.806,542.264 302.247,542.131 302.621,541.902L302.631,541.908C302.607,542.023 302.595,542.142 302.595,542.264C302.595,543.251 303.396,544.051 304.383,544.051C305.37,544.051 306.17,543.251 306.17,542.264C306.17,542.119 306.151,541.979 306.119,541.845C306.424,541.933 306.747,541.98 307.081,541.98C309.007,541.98 310.569,540.419 310.569,538.492C310.569,536.635 309.116,535.117 307.285,535.011Z" style="fill:white;fill-rule:nonzero;"/>
            <path d="M14.413,436.304C16.866,436.304 19.161,436.978 21.127,438.146C21.595,431.308 27.288,425.905 34.245,425.905C35.941,425.905 37.561,426.229 39.049,426.814C40.944,420.474 46.819,415.851 53.776,415.851C62.266,415.851 69.148,422.732 69.148,431.222C69.148,431.438 69.141,431.654 69.131,431.869L69.148,431.869C77.637,431.869 84.52,438.751 84.52,447.24C84.52,455.73 77.637,462.612 69.148,462.612C68.618,462.612 68.094,462.585 67.578,462.533L15.847,462.533C15.376,462.584 14.898,462.612 14.413,462.612C7.148,462.612 1.259,456.723 1.259,449.458C1.259,442.193 7.148,436.304 14.413,436.304Z" style="fill:white;fill-rule:nonzero;"/>
            <path d="M648.836,232.526C645.748,232.526 642.858,233.374 640.384,234.845C639.793,226.235 632.627,219.433 623.866,219.433C621.974,219.433 620.163,219.77 618.469,220.356C616.027,212.464 608.673,206.73 599.979,206.73C599.325,206.73 598.683,206.773 598.047,206.836C589.926,207.348 583.161,212.847 580.813,220.321C579.111,219.73 577.292,219.39 575.389,219.39C566.629,219.39 559.463,226.192 558.872,234.802C556.397,233.33 553.508,232.482 550.42,232.482C541.273,232.482 533.858,239.897 533.858,249.043C533.858,258.19 541.273,265.605 550.42,265.605C551.03,265.605 551.632,265.569 552.225,265.505L577.661,265.505C578.404,265.592 579.157,265.648 579.924,265.648C580.591,265.648 581.25,265.614 581.9,265.549L618.218,265.549C618.589,265.57 618.956,265.605 619.332,265.605C619.708,265.605 620.074,265.57 620.445,265.549L647.03,265.549C647.624,265.613 648.226,265.648 648.836,265.648C657.982,265.648 665.397,258.234 665.397,249.087C665.397,239.94 657.982,232.526 648.836,232.526Z" style="fill:white;fill-rule:nonzero;"/>
            <g transform="matrix(0.796328,0,0,0.796328,84.5393,103.802)">
                <path d="M421.727,445.571L385.038,445.571C385.038,445.571 373.007,458.176 374.663,476.726C374.663,476.726 378.065,472.877 380.767,470.879C381.258,470.515 381.936,470.932 381.842,471.536C381.192,475.726 381.75,488.295 403.382,509.65C425.015,488.295 425.571,475.726 424.922,471.536C424.828,470.932 425.506,470.515 425.997,470.879C428.699,472.877 432.102,476.726 432.102,476.726C433.757,458.176 421.727,445.571 421.727,445.571Z" style="fill:url(#_Linear1);"/>
            </g>
            <g transform="matrix(0.796328,0,0,0.796328,84.5393,103.802)">
                <path d="M403.277,431.271L403.277,431.282C403.277,431.282 379.784,449.929 403.277,482.045L403.277,482.034C426.771,449.917 403.277,431.271 403.277,431.271Z" style="fill:rgb(252,230,150);fill-rule:nonzero;"/>
            </g>
            <g transform="matrix(0.796328,0,0,0.796328,84.5393,103.802)">
                <path d="M403.277,443.191L403.277,443.197C403.277,443.197 389.237,454.341 403.277,473.535L403.277,473.528C417.317,454.334 403.277,443.191 403.277,443.191Z" style="fill:white;fill-rule:nonzero;"/>
            </g>
            <g transform="matrix(0.796328,0,0,0.796328,84.5393,103.802)">
                <path d="M376.916,437.152L379.583,442.299C380.718,444.49 382.981,445.865 385.449,445.865L420.843,445.865C423.311,445.865 425.573,444.49 426.709,442.299L429.376,437.152L376.916,437.152Z" style="fill:rgb(149,149,149);fill-rule:nonzero;"/>
            </g>
            <g transform="matrix(0.796328,0,0,0.796328,84.5393,103.802)">
                <path d="M376.916,437.152L376.028,437.612L378.695,442.759C380.002,445.282 382.608,446.865 385.449,446.865L420.843,446.865C423.684,446.865 426.289,445.282 427.597,442.759L431.02,436.152L375.271,436.152L376.028,437.612L376.916,437.152L376.916,438.152L427.731,438.152L425.821,441.839C424.857,443.698 422.937,444.865 420.843,444.865L385.449,444.865C383.354,444.865 381.434,443.698 380.47,441.839L377.803,436.692L376.916,437.152L376.916,438.152L376.916,437.152Z" style="fill:rgb(66,66,67);fill-rule:nonzero;"/>
            </g>
            <g transform="matrix(0.796328,0,0,0.796328,84.5393,103.802)">
                <path d="M369.356,427.394L372.792,434.021C374.255,436.845 377.169,438.616 380.349,438.616L425.942,438.616C429.122,438.616 432.036,436.845 433.499,434.021L436.936,427.394L369.356,427.394Z" style="fill:rgb(77,78,78);fill-rule:nonzero;"/>
            </g>
            <g transform="matrix(0.796328,0,0,0.796328,84.5393,103.802)">
                <path d="M369.356,427.394L368.469,427.854L371.904,434.482C373.539,437.637 376.796,439.616 380.349,439.616L425.942,439.616C429.495,439.616 432.752,437.637 434.387,434.482L438.58,426.394L367.712,426.394L368.469,427.854L369.356,427.394L369.356,428.394L435.291,428.394L432.611,433.561C431.32,436.053 428.749,437.616 425.942,437.616L380.349,437.616C377.543,437.616 374.971,436.053 373.68,433.561L370.244,426.933L369.356,427.394L369.356,428.394L369.356,427.394Z" style="fill:rgb(66,66,67);fill-rule:nonzero;"/>
            </g>
            <g transform="matrix(0.796328,0,0,0.796328,84.5393,103.802)">
                <path d="M435.732,376.616C435.732,376.616 493.24,396.369 489.582,454.162C489.582,454.162 441.165,404.834 414.811,415.39L435.732,376.616Z" style="fill:rgb(224,38,38);fill-rule:nonzero;"/>
            </g>
            <g transform="matrix(0.796328,0,0,0.796328,84.5393,103.802)">
                <path d="M371.032,376.616C371.032,376.616 313.524,396.369 317.182,454.162C317.182,454.162 365.6,404.834 391.953,415.39L371.032,376.616Z" style="fill:rgb(224,38,38);fill-rule:nonzero;"/>
            </g>
            <g transform="matrix(0.796328,0,0,0.796328,84.5393,103.802)">
                <path d="M431.072,266.128C424.42,249.42 415.354,233.113 403.136,218.142L403.127,218.208L403.118,218.142C391.025,232.958 382.025,249.084 375.392,265.611C388.323,262.52 407.841,260.431 431.072,266.128Z" style="fill:rgb(224,38,38);fill-rule:nonzero;"/>
            </g>
            <g transform="matrix(0.796328,0,0,0.796328,84.5393,103.802)">
                <path d="M431.835,268.09L431.842,268.092L431.072,266.128C400.309,258.233 375.392,265.611 375.392,265.611L374.415,268.092L374.42,268.091C348.997,333.919 360.523,405.377 364.611,425.551C365.27,428.801 368.134,431.128 371.45,431.128L434.804,431.128C438.119,431.128 440.984,428.801 441.643,425.551C445.73,405.377 457.259,333.917 431.835,268.09Z" style="fill:white;fill-rule:nonzero;"/>
            </g>
            <g transform="matrix(0.796328,0,0,0.796328,84.5393,103.802)">
                <path d="M425.574,319.331C425.574,332.358 415.014,342.919 401.986,342.919C388.959,342.919 378.398,332.358 378.398,319.331C378.398,306.304 388.959,295.743 401.986,295.743C415.014,295.743 425.574,306.304 425.574,319.331Z" style="fill:rgb(5,49,70);fill-rule:nonzero;"/>
            </g>
            <g transform="matrix(0.796328,0,0,0.796328,84.5393,103.802)">
                <path d="M426.574,319.331L424.574,319.331C424.574,325.572 422.048,331.212 417.958,335.303C413.868,339.392 408.227,341.918 401.986,341.919C395.746,341.918 390.105,339.392 386.014,335.303C381.925,331.212 379.399,325.572 379.398,319.331C379.399,313.09 381.925,307.45 386.014,303.359C390.105,299.269 395.746,296.743 401.986,296.743C408.227,296.743 413.868,299.269 417.958,303.359C422.047,307.45 424.574,313.09 424.574,319.331L426.574,319.331C426.574,305.751 415.566,294.743 401.986,294.743C388.406,294.743 377.399,305.751 377.398,319.331C377.399,332.911 388.406,343.918 401.986,343.919C415.566,343.918 426.574,332.911 426.574,319.331Z" style="fill:rgb(66,66,67);fill-rule:nonzero;"/>
            </g>
            <g transform="matrix(0.796328,0,0,0.796328,84.5393,103.802)">
                <path d="M421.177,320.429C421.177,330.397 413.096,338.478 403.128,338.478C393.16,338.478 385.079,330.397 385.079,320.429C385.079,310.46 393.16,302.38 403.128,302.38C413.096,302.38 421.177,310.46 421.177,320.429Z" style="fill:rgb(124,125,125);fill-rule:nonzero;"/>
            </g>
            <g transform="matrix(0.796328,0,0,0.796328,84.5393,103.802)">
                <path d="M422.177,320.429L420.177,320.429C420.176,325.14 418.27,329.396 415.183,332.484C412.095,335.571 407.839,337.477 403.128,337.478C398.417,337.478 394.161,335.571 391.072,332.484C387.985,329.396 386.079,325.14 386.079,320.429C386.079,315.718 387.985,311.462 391.072,308.373C394.161,305.286 398.417,303.38 403.128,303.38C407.839,303.38 412.095,305.286 415.183,308.373C418.27,311.462 420.176,315.718 420.177,320.429L422.177,320.429C422.176,309.908 413.648,301.38 403.128,301.38C392.607,301.38 384.079,309.908 384.079,320.429C384.079,330.95 392.607,339.477 403.128,339.478C413.648,339.477 422.176,330.95 422.177,320.429Z" style="fill:rgb(66,66,67);fill-rule:nonzero;"/>
            </g>
            <g transform="matrix(0.796328,0,0,0.796328,84.5393,103.802)">
                <path d="M419.865,319.331C419.865,329.205 411.86,337.209 401.986,337.209C392.112,337.209 384.108,329.205 384.108,319.331C384.108,309.456 392.112,301.452 401.986,301.452C411.86,301.452 419.865,309.456 419.865,319.331Z" style="fill:rgb(58,195,230);fill-rule:nonzero;"/>
            </g>
            <g transform="matrix(0.796328,0,0,0.796328,84.5393,103.802)">
                <path d="M420.865,319.331L418.865,319.331C418.865,323.995 416.978,328.208 413.921,331.266C410.864,334.322 406.65,336.209 401.986,336.209C397.322,336.209 393.109,334.322 390.051,331.266C386.996,328.208 385.108,323.995 385.108,319.331C385.108,314.667 386.996,310.453 390.051,307.396C393.109,304.34 397.322,302.453 401.986,302.452C406.65,302.453 410.864,304.34 413.921,307.396C416.977,310.453 418.865,314.667 418.865,319.331L420.865,319.331C420.865,308.904 412.413,300.453 401.986,300.452C391.56,300.453 383.109,308.904 383.108,319.331C383.109,329.758 391.56,338.209 401.986,338.209C412.413,338.209 420.865,329.758 420.865,319.331Z" style="fill:rgb(66,66,67);fill-rule:nonzero;"/>
            </g>
            <g transform="matrix(0.796328,0,0,0.796328,84.5393,103.802)">
                <path d="M385.563,315.422C386.295,312.331 387.878,309.571 390.051,307.396C393.109,304.34 397.322,302.453 401.986,302.452L402.096,302.452C402.439,302.455 402.78,302.467 403.119,302.49C403.128,302.49 403.135,302.491 403.144,302.491C403.151,302.492 403.158,302.492 403.165,302.493C403.176,302.493 403.187,302.494 403.199,302.495C403.202,302.495 403.205,302.495 403.208,302.496C406.363,302.721 409.277,303.817 411.712,305.544C409.139,304.222 406.222,303.476 403.128,303.476L403.128,304.476L403.128,303.476C395.148,303.476 388.326,308.425 385.563,315.422Z" style="fill:rgb(55,178,210);fill-rule:nonzero;"/>
            </g>
            <g transform="matrix(0.796328,0,0,0.796328,84.5393,103.802)">
                <path d="M403.208,302.496C403.205,302.495 403.202,302.495 403.199,302.495C403.202,302.495 403.205,302.495 403.208,302.496ZM403.165,302.493C403.158,302.492 403.151,302.492 403.144,302.491C403.151,302.492 403.158,302.492 403.165,302.493ZM403.119,302.49C402.78,302.467 402.439,302.455 402.096,302.452C402.439,302.455 402.78,302.467 403.119,302.49ZM402.095,302.452L402.043,302.452L402.095,302.452ZM402.04,302.452L401.986,302.452L402.04,302.452Z" style="fill:rgb(61,61,61);fill-rule:nonzero;"/>
            </g>
            <g transform="matrix(0.796328,0,0,0.796328,84.5393,103.802)">
                <path d="M383.11,319.608L383.11,319.606L383.11,319.608ZM383.109,319.56L383.109,319.522L383.109,319.56ZM383.109,319.51C383.109,319.492 383.108,319.473 383.108,319.455C383.108,319.473 383.109,319.492 383.109,319.51ZM383.108,319.452L383.108,319.392L383.108,319.452ZM383.108,319.392L383.108,319.331L383.108,319.392ZM402.091,300.452L402.08,300.452L402.091,300.452ZM402.039,300.452L401.986,300.452L402.039,300.452Z" style="fill:rgb(10,50,70);fill-rule:nonzero;"/>
            </g>
            <g transform="matrix(0.796328,0,0,0.796328,84.5393,103.802)">
                <path d="M386.87,326.849C385.742,324.586 385.108,322.034 385.108,319.331C385.108,314.667 386.996,310.453 390.051,307.396C393.109,304.34 397.322,302.453 401.986,302.452C397.322,302.453 393.109,304.34 390.051,307.396C387.878,309.571 386.295,312.331 385.563,315.422C388.326,308.425 395.148,303.476 403.128,303.476L403.128,305.476C398.464,305.476 394.25,307.363 391.193,310.419C388.137,313.477 386.249,317.69 386.249,322.354C386.249,323.907 386.476,325.407 386.873,326.847L386.87,326.849ZM418.305,315.008C415.568,309.37 409.811,305.475 403.128,305.476L403.128,303.476C406.222,303.476 409.139,304.222 411.712,305.544C409.277,303.817 406.363,302.721 403.208,302.496C407.383,302.794 411.133,304.609 413.921,307.396C415.998,309.473 417.534,312.084 418.307,315.007L418.305,315.008Z" style="fill:rgb(59,185,217);fill-rule:nonzero;"/>
            </g>
            <g transform="matrix(0.796328,0,0,0.796328,84.5393,103.802)">
                <path d="M385.009,327.55C383.843,325.145 383.152,322.456 383.11,319.608L383.11,319.606C383.11,319.591 383.11,319.575 383.109,319.56L383.109,319.51C383.109,319.492 383.108,319.473 383.108,319.455L383.108,319.331C383.109,308.904 391.56,300.453 401.986,300.452L402.091,300.452C410.729,300.501 417.976,306.354 420.169,314.305L418.307,315.007C417.534,312.084 415.998,309.473 413.921,307.396C411.133,304.609 407.383,302.794 403.208,302.496C403.205,302.495 403.202,302.495 403.199,302.495C403.188,302.494 403.176,302.493 403.165,302.493C403.158,302.492 403.151,302.492 403.144,302.491C403.136,302.491 403.127,302.49 403.119,302.49C402.78,302.467 402.439,302.455 402.096,302.452L401.986,302.452C397.322,302.453 393.109,304.34 390.051,307.396C386.996,310.453 385.108,314.667 385.108,319.331C385.108,322.034 385.742,324.586 386.87,326.849L385.009,327.55Z" style="fill:rgb(66,66,67);fill-rule:nonzero;"/>
            </g>
            <g transform="matrix(0.796328,0,0,0.796328,84.5393,103.802)">
                <path d="M403.199,302.495C403.187,302.494 403.176,302.493 403.165,302.493C403.176,302.493 403.188,302.494 403.199,302.495ZM403.144,302.491C403.135,302.491 403.128,302.49 403.119,302.49C403.127,302.49 403.136,302.491 403.144,302.491ZM402.096,302.452L402.095,302.452L402.096,302.452ZM402.043,302.452L402.04,302.452L402.043,302.452Z" style="fill:rgb(59,185,217);fill-rule:nonzero;"/>
            </g>
        </g>
    </g>
    <defs>
        <linearGradient id="_Linear1" x1="0" y1="0" x2="1" y2="0" gradientUnits="userSpaceOnUse" gradientTransform="matrix(3.92371e-15,64.079,-64.079,3.92371e-15,403.382,445.571)"><stop offset="0" style="stop-color:rgb(248,189,110);stop-opacity:1"/><stop offset="1" style="stop-color:rgb(238,102,53);stop-opacity:1"/></linearGradient>
    </defs>
</svg>
